# xmcd
#
# Track frame offsets: 
#        182
#        36210
#        49750
#        61197
#        74040
#        87045
#        98802
#        109965
#        122512
#        134215
#        146907
#        160170
#        173575
#        185860
#        197050
#        210107
#        223902
#        236667
#        247987
#        263022
#
# Disc length: 3643 seconds
#
# Revision: 2
# Processed by: cddbd v1.5.1PL0 Copyright (c) Steve Scherf et al.
# Submitted via: ExactAudioCopy v0.95a5
#
DISCID=2e0e3914
DTITLE=Lightnin' Hopkins - Mojo Hand [Disc 1]
DYEAR=1993
DGENRE=Blues
TTITLE0=Blues Is A Feeling
TTITLE1=Katie Mae Blues
TTITLE2=Play With Your Poodle
TTITLE3=Baby Please Don't Go
TTITLE4=Needed Time
TTITLE5=Short Haired Woman
TTITLE6=Mad With You
TTITLE7=Automobile
TTITLE8="T" Model Blues
TTITLE9=Lightnin' Boogie
TTITLE10=Black Cat Bone
TTITLE11=Give Me Central 209
TTITLE12=Coffee Blues
TTITLE13=What's The Matter Now
TTITLE14=I'm Wild About You Baby
TTITLE15=Policy Game
TTITLE16=Late In The Evening
TTITLE17=Lightnin' Jump
TTITLE18=Lightnin' Don't Feel Well
TTITLE19=Movin' On Out Boogie
EXTD=
EXTT0=
EXTT1=
EXTT2=
EXTT3=
EXTT4=
EXTT5=
EXTT6=
EXTT7=
EXTT8=
EXTT9=
EXTT10=
EXTT11=
EXTT12=
EXTT13=
EXTT14=
EXTT15=
EXTT16=
EXTT17=
EXTT18=
EXTT19=
PLAYORDER=
